<svg width="20" height="26" viewBox="0 0 20 26" fill="none" xmlns="http://www.w3.org/2000/svg">
<path fill-rule="evenodd" clip-rule="evenodd" d="M8.65503 0.170337C8.59838 0.261944 8.51625 1.12765 8.49516 2.08356C8.38202 5.32347 7.37365 8.66376 5.94704 10.5946C5.06318 11.7762 3.96249 12.5777 1.79376 13.6355C0.4249 14.3002 0.0334032 14.5417 0.00958377 14.7743C-0.0276994 15.0588 0.0020294 15.071 0.898534 15.0236C1.41266 14.9854 1.97308 15.0364 2.15143 15.1094C2.33009 15.1953 2.95151 15.335 3.55862 15.4235C4.82902 15.6249 5.61913 15.9797 6.55058 16.7708C7.85775 17.8866 8.54195 19.3412 9.53115 23.136C9.85609 24.4059 10.1779 25.5455 10.2689 25.6593C10.5599 26.1293 11.4698 26.03 11.6342 25.5232C11.6752 25.3933 12.0046 23.7983 12.3729 21.9846C13.2538 17.629 13.6683 16.4459 14.6316 15.5059C15.4078 14.7395 16.5037 14.3521 18.4854 14.1481C19.5862 14.0314 19.9806 13.8414 19.9707 13.4291C19.9623 13.0812 19.7095 12.9713 18.4809 12.7431C16.8979 12.459 15.1488 11.934 14.327 11.4883C12.0447 10.2785 11.1013 8.38046 10.2262 3.21492C9.97043 1.76293 9.71781 0.441205 9.64024 0.275488C9.471 -0.0298236 8.85113 -0.105113 8.65176 0.170416L8.65503 0.170337ZM10.5863 9.39841C11.4669 11.1318 12.6856 12.1724 14.6759 12.938C15.2401 13.1436 15.7013 13.3516 15.7022 13.3902C15.7032 13.4289 15.4121 13.5648 15.0475 13.7025C13.0341 14.4859 12.0616 16.264 11.2248 20.6186C11.0279 21.6031 10.841 22.3954 10.7959 22.3578C10.7656 22.3199 10.4816 21.5275 10.1794 20.5923C9.47911 18.4033 8.6788 17.016 7.55215 16.0634C6.50029 15.1606 5.50082 14.6676 4.25891 14.4269L3.29797 14.2438L4.25558 13.6793C6.37584 12.4421 7.90159 10.4186 8.79232 7.624C9.03902 6.87035 9.25752 6.16751 9.29915 6.06337C9.34079 5.95923 9.52909 6.44457 9.73768 7.16146C9.94628 7.87835 10.3235 8.8762 10.5863 9.39841Z" fill="#005FF9"/>
</svg>
