<svg width="31" height="40" viewBox="0 0 31 40" fill="none" xmlns="http://www.w3.org/2000/svg">
<path fill-rule="evenodd" clip-rule="evenodd" d="M13.2692 0.262195C13.1824 0.403121 13.0566 1.73497 13.0244 3.20559C12.8513 8.19004 11.3055 13.3288 9.11828 16.2992C7.76317 18.1169 6.07554 19.3498 2.75028 20.977C0.651433 21.9994 0.0511664 22.3709 0.0146719 22.7288C-0.0424606 23.1665 0.00312522 23.1852 1.37776 23.1124C2.16608 23.0537 3.02541 23.1321 3.29888 23.2445C3.57284 23.3767 4.52571 23.5918 5.45662 23.728C7.40459 24.038 8.61614 24.5839 10.0445 25.8011C12.0489 27.5179 13.0982 29.7557 14.6155 35.5941C15.1139 37.5477 15.6074 39.301 15.7471 39.4761C16.1932 40.1991 17.5885 40.0465 17.8404 39.2669C17.9033 39.0671 18.4082 36.6133 18.9727 33.823C20.3228 27.1222 20.9583 25.3021 22.4352 23.8561C23.6252 22.6771 25.3057 22.0812 28.3442 21.7677C30.0322 21.5881 30.6369 21.2959 30.6216 20.6616C30.6086 20.1264 30.221 19.9573 28.3372 19.6061C25.9098 19.1688 23.2278 18.3608 21.9677 17.6751C18.4681 15.8136 17.0212 12.8934 15.6787 4.94636C15.2864 2.71249 14.8989 0.679045 14.7799 0.424087C14.5204 -0.0456436 13.5699 -0.16155 13.2642 0.262316L13.2692 0.262195ZM16.2316 14.4594C17.5821 17.1264 19.4509 18.7274 22.5029 19.9055C23.368 20.2218 24.0752 20.5419 24.0766 20.6013C24.078 20.6608 23.6318 20.8699 23.0728 21.0817C19.9855 22.2867 18.4946 25.0221 17.2122 31.7213C16.9102 33.2359 16.6238 34.4548 16.5547 34.397C16.5081 34.3386 16.0726 33.1195 15.6091 31.6807C14.5351 28.3129 13.3078 26.1786 11.5801 24.7129C9.96715 23.3239 8.43457 22.5653 6.53027 22.1948L5.05681 21.913L6.52508 21.0446C9.776 19.1415 12.1152 16.0286 13.4807 11.7294C13.8589 10.5699 14.1938 9.48866 14.2576 9.32846C14.3215 9.16826 14.6102 9.91496 14.9302 11.0179C15.2501 12.1208 15.8287 13.656 16.2316 14.4594Z" fill="#005FF9"/>
</svg>
