<svg width="46" height="60" viewBox="0 0 46 60" fill="none" xmlns="http://www.w3.org/2000/svg">
<path fill-rule="evenodd" clip-rule="evenodd" d="M19.9038 0.39317C19.7735 0.604559 19.5848 2.60233 19.5365 4.80826C19.2768 12.2849 16.9582 19.9931 13.6774 24.4487C11.6447 27.1752 9.11325 29.0245 4.12535 31.4653C0.977089 32.999 0.0766885 33.5562 0.0219469 34.093C-0.0637519 34.7496 0.0046268 34.7777 2.06658 34.6684C3.24906 34.5804 4.53805 34.6981 4.94826 34.8667C5.3592 35.065 6.7885 35.3875 8.18487 35.5918C11.1068 36.0568 12.9242 36.8757 15.0666 38.7016C18.0733 41.2767 19.6473 44.6335 21.9231 53.391C22.6707 56.3215 23.4111 58.9513 23.6205 59.214C24.2898 60.2986 26.3827 60.0696 26.7606 58.9003C26.8549 58.6005 27.6123 54.9198 28.459 50.7344C30.4842 40.6831 31.4374 37.953 33.6528 35.784C35.4378 34.0155 37.9584 33.1217 42.5163 32.6514C45.0482 32.3821 45.9552 31.9437 45.9323 30.9923C45.9129 30.1895 45.3314 29.9358 42.5057 29.409C38.8647 28.7531 34.8416 27.5411 32.9515 26.5125C27.702 23.7203 25.5317 19.34 23.518 7.41941C22.9295 4.06862 22.3483 1.01845 22.1698 0.636008C21.7805 -0.0685874 20.3548 -0.242448 19.8963 0.393351L19.9038 0.39317ZM24.3474 21.689C26.3731 25.6894 29.1763 28.091 33.7543 29.8581C35.0519 30.3325 36.1127 30.8127 36.1148 30.9019C36.117 30.9911 35.4476 31.3047 34.6091 31.6224C29.9783 33.4299 27.7419 37.5331 25.8182 47.5819C25.3653 49.8538 24.9356 51.6821 24.8319 51.5954C24.7621 51.5078 24.1088 49.6791 23.4137 47.5209C21.8026 42.4693 19.9616 39.2677 17.3701 37.0693C14.9507 34.9857 12.6518 33.8478 9.79535 33.292L7.58516 32.8693L9.78756 31.5667C14.6639 28.7121 18.1728 24.0428 20.221 17.5939C20.7882 15.8548 21.2906 14.2329 21.3864 13.9926C21.4821 13.7523 21.9153 14.8723 22.3952 16.5267C22.8751 18.1811 23.743 20.4839 24.3474 21.689Z" fill="#005FF9"/>
</svg>
