<svg width="46" height="60" viewBox="0 0 46 60" fill="none" xmlns="http://www.w3.org/2000/svg">
<path fill-rule="evenodd" clip-rule="evenodd" d="M15.8661 0.511746C15.7611 0.736742 15.8038 2.74295 16.0101 4.93975C16.6139 12.3965 15.199 20.3205 12.4536 25.1246C10.7487 28.0672 8.44725 30.196 3.77389 33.1953C0.82336 35.0816 -0.00682376 35.7389 0.000667274 36.2784C-0.0087921 36.9405 0.0623698 36.9605 2.098 36.6144C3.26245 36.3906 4.55641 36.359 4.98332 36.4792C5.41438 36.6288 6.87132 36.7844 8.28193 36.8265C11.238 36.9516 13.1376 37.5556 15.4762 39.1224C18.7597 41.3338 20.71 44.4868 23.98 52.9237C25.0604 55.7485 26.0989 58.2755 26.3372 58.5123C27.127 59.5125 29.1796 59.0439 29.4202 57.8387C29.4793 57.5301 29.8074 53.7866 30.1662 49.5316C31.0194 39.3138 31.6517 36.492 33.6023 34.0822C35.1716 32.1197 37.5724 30.9413 42.0457 29.9489C44.5297 29.3896 45.3802 28.8496 45.2477 27.9072C45.1359 27.112 44.5291 26.927 41.6615 26.7293C37.9691 26.4974 33.8332 25.7572 31.8372 24.9532C26.3008 22.7847 23.6402 18.6837 20.266 7.07462C19.2953 3.81398 18.3663 0.85113 18.145 0.491807C17.6771 -0.163226 16.2408 -0.171611 15.8587 0.512794L15.8661 0.511746ZM22.7345 21.1536C25.2077 24.8938 28.269 26.9563 33.0201 28.184C34.3638 28.5058 35.4728 28.8605 35.4853 28.9488C35.4977 29.0372 34.8689 29.4259 34.0726 29.8381C29.6809 32.1672 27.9324 36.5008 27.1796 46.7044C26.9916 49.0133 26.7754 50.879 26.6625 50.8048C26.5831 50.7259 25.7233 48.9847 24.7841 46.9209C22.6015 42.0887 20.4038 39.1206 17.5763 37.2354C14.9328 35.4446 12.5181 34.5793 9.61663 34.3564L7.37245 34.1912L9.41005 32.6435C13.9249 29.2459 16.8723 24.2033 18.1636 17.5613C18.5266 15.7684 18.8387 14.0994 18.9062 13.8497C18.9736 13.5999 19.5329 14.6626 20.2003 16.2506C20.8677 17.8387 21.9952 20.0261 22.7345 21.1536Z" fill="#005FF9"/>
</svg>
