<svg width="56" height="46" viewBox="0 0 56 46" fill="none" xmlns="http://www.w3.org/2000/svg">
<path fill-rule="evenodd" clip-rule="evenodd" d="M20.238 44.2735C21.8314 43.7672 23.0166 41.5251 25.4055 34.596C26.7959 30.609 29.9453 23.0387 32.3759 17.769C36.8998 8.07066 37.2235 6.81052 35.4161 6.43651C34.2682 6.17177 32.8635 7.79966 30.4887 12.1327C25.5648 21.2506 18.8707 38.4996 18.8828 42.069C18.881 43.8095 19.326 44.5159 20.2412 44.2776L20.238 44.2735Z" fill="#005FF9"/>
<path fill-rule="evenodd" clip-rule="evenodd" d="M1.38779 15.9944C2.09069 16.0227 3.73849 14.8427 9.46935 10.3115C17.6224 3.7805 18.8504 2.40479 17.889 0.832638C16.8558 -0.891438 16.0016 -0.378551 7.69703 6.63345C1.13404 12.184 0.235002 13.041 0.0610552 14.0229C-0.161683 15.4122 0.212344 15.9593 1.38868 15.987L1.38779 15.9944Z" fill="#005FF9"/>
<path fill-rule="evenodd" clip-rule="evenodd" d="M54.3035 45.6982C54.858 45.7416 55.2083 45.5151 55.2429 45.2262C55.2775 44.9373 54.5489 41.3906 53.5908 37.345C52.5109 32.8104 51.6413 27.2721 51.2501 22.8843C50.7569 17.1527 50.4487 15.5537 49.7406 14.7841C48.6153 13.6087 47.2632 14.2957 46.9742 16.2068C46.5861 18.7258 48.3022 32.1906 49.6134 37.0212C51.1441 42.466 52.8539 45.6625 54.2961 45.6974L54.3035 45.6982Z" fill="#005FF9"/>
</svg>
