<svg width="112" height="24" viewBox="0 0 112 24" fill="none" xmlns="http://www.w3.org/2000/svg">
<path d="M6.34105 3.65076C6.42765 1.92237 5.32327 0.0737165 3.454 0.0538118C3.16784 -0.0623773 2.62595 0.0337998 2.33739 0.115238C0.574161 0.612999 -0.372239 2.41122 0.13745 4.15926C0.436577 5.18535 1.02835 5.6683 1.92879 6.16573L1.92814 13.5072C1.92755 14.0421 1.83345 14.5618 2.24205 14.9774C2.70301 15.4465 3.502 15.4676 3.96893 14.9923C4.31176 14.6434 4.27774 14.1793 4.27796 13.7272L4.2776 9.34676V6.16573C4.58386 6.084 4.85313 5.89791 5.11023 5.71939C6.01956 6.18568 7.04069 6.75974 7.92234 7.2745L8.8302 7.81123C9.27303 8.07374 9.74769 8.41739 10.2897 8.27468C11.1754 8.04157 11.5233 6.93878 10.7849 6.31034C10.6089 6.16049 10.3915 6.05249 10.1921 5.93728L9.31673 5.42711C8.32423 4.83747 7.34651 4.21814 6.34105 3.65076Z" fill="#DCE8FF"/>
<path d="M21.9999 6.2134C22.2344 6.07767 22.4766 5.94594 22.6958 5.78627C25.0247 4.09085 24.0738 0.503465 21.1179 0.0538093C19.0385 -0.17846 17.2486 1.7397 17.6353 3.81931L5.49537 17.4988C5.28496 17.7349 5.065 17.9675 4.87745 18.2225C3.4009 17.2448 1.30074 17.6683 0.409699 19.2414C-0.448572 20.7567 0.0882844 22.7504 1.62056 23.5972C4.065 24.9479 6.99232 22.6845 6.20499 20.0307C6.69159 19.5569 7.13384 19.0337 7.58977 18.5304L16.458 8.73077C17.2981 7.79391 18.1437 6.84489 19.0228 5.94594L19.5949 6.2134L19.5953 14.2773C19.5953 15.4697 19.5807 16.6637 19.5949 17.8561C19.2898 17.891 19.0763 18.0563 18.8291 18.2225C17.8262 17.6814 16.7912 17.0716 15.8054 16.4985C15.3546 16.2368 14.6277 15.7565 14.1572 15.5978C12.9849 15.2016 12.1285 16.8314 12.9948 17.585C13.3196 17.8674 13.7573 18.0628 14.1299 18.2822C15.2744 18.9558 16.4452 19.5864 17.5931 20.2549C17.2632 24.3031 22.2927 25.1994 23.6572 22.1711C24.395 20.5332 23.6408 18.5832 21.9999 17.8561V7.39523C21.9995 7.00594 21.9678 6.59992 21.9999 6.2134Z" fill="#DCE8FF"/>
<path d="M21.9999 6.2134C22.2344 6.07767 22.4766 5.94594 22.6958 5.78627C25.0247 4.09085 24.0738 0.503465 21.1179 0.0538093C19.0385 -0.17846 17.2486 1.7397 17.6353 3.81931L5.49537 17.4988C5.28496 17.7349 5.065 17.9675 4.87745 18.2225C3.4009 17.2448 1.30074 17.6683 0.409699 19.2414C-0.448572 20.7567 0.0882844 22.7504 1.62056 23.5972C4.065 24.9479 6.99232 22.6845 6.20499 20.0307C6.69159 19.5569 7.13384 19.0337 7.58977 18.5304L16.458 8.73077C17.2981 7.79391 18.1437 6.84489 19.0228 5.94594L19.5949 6.2134L19.5953 14.2773C19.5953 15.4697 19.5807 16.6637 19.5949 17.8561C19.2898 17.891 19.0763 18.0563 18.8291 18.2225C17.8262 17.6814 16.7912 17.0716 15.8054 16.4985C15.3546 16.2368 14.6277 15.7565 14.1572 15.5978C12.9849 15.2016 12.1285 16.8314 12.9948 17.585C13.3196 17.8674 13.7573 18.0628 14.1299 18.2822C15.2744 18.9558 16.4452 19.5864 17.5931 20.2549C17.2632 24.3031 22.2927 25.1994 23.6572 22.1711C24.395 20.5332 23.6408 18.5832 21.9999 17.8561V7.39523C21.9995 7.00594 21.9678 6.59992 21.9999 6.2134Z" fill="#DCE8FF"/>
<path d="M6.34105 3.65076C6.42765 1.92237 5.32327 0.0737165 3.454 0.0538118C3.16784 -0.0623773 2.62595 0.0337998 2.33739 0.115238C0.574161 0.612999 -0.372239 2.41122 0.13745 4.15926C0.436577 5.18535 1.02835 5.6683 1.92879 6.16573L1.92814 13.5072C1.92755 14.0421 1.83345 14.5618 2.24205 14.9774C2.70301 15.4465 3.502 15.4676 3.96893 14.9923C4.31176 14.6434 4.27774 14.1793 4.27796 13.7272L4.2776 9.34676V6.16573C4.58386 6.084 4.85313 5.89791 5.11023 5.71939C6.01956 6.18568 7.04069 6.75974 7.92234 7.2745L8.8302 7.81123C9.27303 8.07374 9.74769 8.41739 10.2897 8.27468C11.1754 8.04157 11.5233 6.93878 10.7849 6.31034C10.6089 6.16049 10.3915 6.05249 10.1921 5.93728L9.31673 5.42711C8.32423 4.83747 7.34651 4.21814 6.34105 3.65076Z" fill="#DCE8FF"/>
<path d="M53.6299 8.26855C54.5072 8.26857 55.324 8.41055 56.0801 8.69336C56.8418 8.9704 57.5057 9.38845 58.0713 9.94824C58.6426 10.508 59.0869 11.2123 59.4043 12.0605C59.7217 12.9031 59.8808 13.8904 59.8809 15.0215V16.0352H50.8242V16.0439C50.8243 16.7018 50.9461 17.27 51.1885 17.749C51.4366 18.228 51.7853 18.5977 52.2354 18.8574C52.6856 19.1172 53.2203 19.2471 53.8379 19.2471C54.2474 19.247 54.6225 19.1896 54.9629 19.0742C55.3034 18.9588 55.5955 18.7856 55.8379 18.5547C56.0803 18.3239 56.2646 18.0407 56.3916 17.7061L59.8027 17.9307C59.6296 18.7502 59.275 19.4663 58.7383 20.0781C58.2073 20.6841 57.5203 21.1575 56.6777 21.498C55.8409 21.8328 54.8738 22 53.7773 22C52.4094 22 51.2311 21.7231 50.2441 21.1689C49.2631 20.6091 48.5075 19.8183 47.9766 18.7969C47.4455 17.7695 47.1797 16.5539 47.1797 15.1514C47.1797 13.7836 47.4456 12.5829 47.9766 11.5498C48.5076 10.5168 49.255 9.71188 50.2188 9.13477C51.1884 8.5576 52.3255 8.26855 53.6299 8.26855ZM38.9961 4.00879C40.3348 4.00883 41.4774 4.24864 42.4238 4.72754C43.3762 5.20084 44.1013 5.87355 44.5977 6.74512C45.0997 7.61075 45.3505 8.62936 45.3506 9.80078C45.3506 10.9781 45.0967 11.9914 44.5889 12.8398C44.0809 13.6825 43.3448 14.3291 42.3809 14.7793C42.328 14.8041 42.2728 14.8242 42.2188 14.8477L45.9824 21.7402H41.8438L38.4854 15.4551H35.749V21.7402H32V4.00879H38.9961ZM77.4219 8.26855C78.6627 8.2686 79.67 8.66437 80.4434 9.45508C81.2225 10.2401 81.6123 11.354 81.6123 12.7969V21.7402H77.9326V13.5244C77.9326 12.7856 77.7362 12.2307 77.3438 11.8613C76.9513 11.4921 76.4606 11.3077 75.8721 11.3076C75.2025 11.3076 74.6799 11.5211 74.3047 11.9482C73.9296 12.3696 73.7422 12.9266 73.7422 13.6191V21.7402H70.166V13.4463C70.166 12.7941 69.9787 12.2744 69.6035 11.8877C69.2342 11.5011 68.7465 11.3077 68.1406 11.3076C67.7309 11.3076 67.3612 11.4114 67.0322 11.6191C66.709 11.8212 66.4522 12.1072 66.2617 12.4766C66.0713 12.8402 65.9756 13.2672 65.9756 13.7578V21.7402H62.2881V8.44238H65.8027V10.7881H65.959C66.236 10.0091 66.6975 9.39449 67.3438 8.94434C67.9902 8.49414 68.7637 8.26857 69.6641 8.26855C70.576 8.26855 71.3525 8.49714 71.9932 8.95312C72.6337 9.4033 73.0609 10.0148 73.2744 10.7881H73.4131C73.6844 10.0262 74.1749 9.4169 74.8848 8.96094C75.6005 8.49924 76.4465 8.26855 77.4219 8.26855ZM88.2139 21.7402H84.5254V8.44238H88.2139V21.7402ZM98.8389 8.26855C99.7624 8.26855 100.568 8.47096 101.255 8.875C101.942 9.27903 102.476 9.85617 102.856 10.6064C103.237 11.351 103.428 12.2403 103.428 13.2734V21.7402H99.7393V13.9307C99.745 13.117 99.5375 12.4823 99.1162 12.0264C98.6949 11.5646 98.1148 11.334 97.376 11.334C96.8796 11.334 96.4405 11.4407 96.0596 11.6543C95.6846 11.8678 95.3902 12.1793 95.1768 12.5889C94.969 12.9928 94.8623 13.4805 94.8564 14.0518V21.7402H91.168V8.44238H94.6836V10.7881H94.8389C95.1332 10.0148 95.6269 9.40331 96.3193 8.95312C97.0119 8.49718 97.852 8.2686 98.8389 8.26855ZM110.023 21.7402H106.335V8.44238H110.023V21.7402ZM53.6904 11.0225C53.1306 11.0225 52.634 11.1515 52.2012 11.4111C51.7742 11.665 51.4397 12.0088 51.1973 12.4414C50.9737 12.8354 50.8514 13.2716 50.8291 13.749H56.4092C56.4092 13.2181 56.2934 12.7476 56.0625 12.3379C55.8316 11.9281 55.5113 11.6078 55.1016 11.377C54.6976 11.1403 54.2272 11.0225 53.6904 11.0225ZM35.749 12.4414H38.2939C39.0097 12.4414 39.6048 12.3437 40.0781 12.1475C40.5512 11.9513 40.9029 11.6569 41.1338 11.2646C41.3704 10.8722 41.4893 10.3837 41.4893 9.80078C41.4892 9.2123 41.3703 8.71641 41.1338 8.3125C40.9029 7.9085 40.5484 7.60232 40.0693 7.39453C39.5961 7.18099 38.9987 7.07424 38.2773 7.07422H35.749V12.4414ZM86.5195 0C86.4783 1.91946 88.0013 3.50936 89.9209 3.55078C88.0014 3.50943 86.4117 5.03166 86.3701 6.95117C86.4114 5.0317 84.8883 3.44193 82.9688 3.40039C84.8882 3.44174 86.478 1.91958 86.5195 0ZM108.173 1.79199C109.397 1.79199 110.39 2.7847 110.39 4.00879C110.39 5.23289 109.397 6.22559 108.173 6.22559C106.949 6.22554 105.956 5.23286 105.956 4.00879C105.956 2.78473 106.949 1.79204 108.173 1.79199Z" fill="#DCE8FF"/>
</svg>
