<svg width="17" height="17" viewBox="0 0 17 17" fill="none" xmlns="http://www.w3.org/2000/svg">
<path d="M15.1756 4.47359C15.2402 4.34443 15.3444 4.24022 15.4736 4.17564L16.6301 3.59295C16.8562 3.48287 17 3.25244 17 3C17 2.74757 16.8562 2.51711 16.6301 2.40705L15.4618 1.82436C15.3327 1.75978 15.2285 1.65558 15.1653 1.52642L14.5929 0.36987C14.4829 0.14384 14.2524 0 14 0C13.7476 0 13.5171 0.14384 13.4071 0.36987L12.8244 1.53818C12.7598 1.66734 12.6556 1.77154 12.5264 1.83466L11.3699 2.40705C11.1438 2.51713 11 2.74756 11 3C11 3.25244 11.1438 3.48289 11.3699 3.59295L12.5352 4.17564C12.6629 4.24022 12.7671 4.34442 12.8317 4.47358L13.407 5.63014C13.5171 5.85616 13.7476 6 14 6C14.2524 6 14.4829 5.85617 14.5929 5.63014L15.1756 4.47359Z" fill="#DCE8FF"/>
<path d="M16 8.5C16 12.6421 12.6421 16 8.5 16C4.35786 16 1 12.6421 1 8.5C1 4.35786 4.35786 1 8.5 1" stroke="#DCE8FF" stroke-width="2"/>
<path d="M5.91284 10.2786L6.97817 9.2132L7.22493 9.46C8.06823 10.3008 9.43223 10.301 10.2756 9.4602L10.5225 9.2132L11.5873 10.278L11.3406 10.5248C9.90963 11.9559 7.58943 11.956 6.15698 10.525L5.91284 10.2786Z" fill="#DCE8FF" stroke="#DCE8FF" stroke-width="0.301546"/>
</svg>
