<svg width="16" height="18" viewBox="0 0 16 18" fill="none" xmlns="http://www.w3.org/2000/svg">
<path d="M1.53498 8.2258V9.2258C2.08727 9.2258 2.53498 8.7781 2.53498 8.2258H1.53498ZM2.17078 10.7813L3.11606 10.455L2.9429 9.9534L2.43042 9.8156L2.17078 10.7813ZM14.2651 8.2258H13.2651C13.2651 8.7781 13.7128 9.2258 14.2651 9.2258V8.2258ZM13.6293 10.7813L13.3696 9.8156L12.8571 9.9534L12.684 10.455L13.6293 10.7813ZM2.53498 6.6068C2.53498 4.15397 4.59376 2 7.89999 2V0C3.68136 0 0.53498 2.86656 0.53498 6.6068H2.53498ZM0.53498 6.6068V8.2258H2.53498V6.6068H0.53498ZM1.53498 7.2258C1.2084 7.2258 0.8877 7.3256 0.61956 7.5365C0.36191 7.7392 0.20948 7.9993 0.12273 8.2365C-0.0433697 8.6906 -0.0195994 9.1878 0.0688706 9.5955C0.235151 10.3617 0.792811 11.4463 1.91114 11.747L2.43042 9.8156C2.4057 9.8089 2.33086 9.7767 2.23451 9.6478C2.13854 9.5195 2.06113 9.3453 2.02337 9.1713C1.98188 8.9801 2.01016 8.8986 2.00102 8.9236C1.99275 8.9462 1.95691 9.0291 1.85622 9.1084C1.74502 9.1959 1.62164 9.2258 1.53498 9.2258V7.2258ZM1.22551 11.1076C1.51373 11.9426 1.97094 13.5717 2.90951 14.9404C3.89245 16.3738 5.4487 17.6 7.89999 17.6V15.6C6.25179 15.6 5.25829 14.8291 4.55894 13.8093C3.81522 12.7247 3.45758 11.4445 3.11606 10.455L1.22551 11.1076ZM15.2651 6.6068C15.2651 4.70458 14.2969 3.04228 12.9353 1.88127C11.5752 0.72154 9.75689 0 7.89999 0V2C9.25359 2 10.6178 2.53358 11.6376 3.40314C12.6559 4.2714 13.2651 5.41253 13.2651 6.6068H15.2651ZM13.2651 6.6068V8.2258H15.2651V6.6068H13.2651ZM14.2651 9.2258C14.1784 9.2258 14.055 9.1958 13.9438 9.1083C13.8431 9.0291 13.8072 8.9461 13.799 8.9235C13.7898 8.8986 13.8181 8.9801 13.7766 9.1713C13.7389 9.3453 13.6615 9.5196 13.5655 9.6479C13.4692 9.7767 13.3943 9.8089 13.3696 9.8156L13.8889 11.747C15.0073 11.4463 15.5649 10.3616 15.7311 9.5954C15.8196 9.1878 15.8434 8.6906 15.6773 8.2365C15.5905 7.9994 15.4381 7.7393 15.1805 7.5366C14.9124 7.3256 14.5917 7.2258 14.2651 7.2258V9.2258ZM12.684 10.455C12.3425 11.4445 11.9848 12.7247 11.2411 13.8093C10.5417 14.8291 9.54819 15.6 7.89999 15.6V17.6C10.3513 17.6 11.9076 16.3738 12.8905 14.9404C13.8291 13.5717 14.2863 11.9426 14.5745 11.1076L12.684 10.455Z" fill="#DCE8FF"/>
<path d="M8.8999 8.59961C8.8999 8.04732 8.45219 7.59961 7.8999 7.59961C7.34762 7.59961 6.8999 8.04732 6.8999 8.59961C6.8999 9.15189 7.34762 9.59961 7.8999 9.59961C8.45219 9.59961 8.8999 9.15189 8.8999 8.59961Z" fill="#DCE8FF" stroke="#DCE8FF" stroke-width="2"/>
<path d="M7.8999 0.799805V16.3998" stroke="#DCE8FF" stroke-width="2" stroke-linejoin="bevel"/>
</svg>
